<svg xmlns="http://www.w3.org/2000/svg" xmlns:xlink="http://www.w3.org/1999/xlink" contentStyleType="text/css" data-diagram-type="SEQUENCE" height="627px" preserveAspectRatio="none" style="width:630px;height:627px;background:#FFFFFF;" version="1.1" viewBox="0 0 630 627" width="630px" zoomAndPan="magnify"><title>Return Book Sequence Diagram</title><defs/><g><text fill="#000000" font-family="sans-serif" font-size="14" font-weight="bold" lengthAdjust="spacing" textLength="251.2959" x="190.6714" y="27.9951">Return Book Sequence Diagram</text><g><title>Dashboard</title><rect fill="#FFFFFF" height="145.6641" style="stroke:#181818;stroke-width:1;" width="10" x="162.9829" y="149.7266"/></g><g><title>Dashboard</title><rect fill="#FFFFFF" height="203.9297" style="stroke:#181818;stroke-width:1;" width="10" x="162.9829" y="324.5234"/></g><g><title>.LoanController</title><rect fill="#FFFFFF" height="87.3984" style="stroke:#181818;stroke-width:1;" width="10" x="342.5303" y="178.8594"/></g><g><title>.LoanController</title><rect fill="#FFFFFF" height="145.6641" style="stroke:#181818;stroke-width:1;" width="10" x="342.5303" y="353.6563"/></g><g><title>.LoanDB</title><rect fill="#FFFFFF" height="29.1328" style="stroke:#181818;stroke-width:1;" width="10" x="515.2349" y="207.9922"/></g><g><title>.LoanDB</title><rect fill="#FFFFFF" height="29.1328" style="stroke:#181818;stroke-width:1;" width="10" x="515.2349" y="382.7891"/></g><g><title>.BookDB</title><rect fill="#FFFFFF" height="29.1328" style="stroke:#181818;stroke-width:1;" width="10" x="590.6665" y="441.0547"/></g><g><title>User</title><rect fill="#000000" fill-opacity="0.00000" height="427.8594" width="8" x="19.9551" y="118.5938"/><line style="stroke:#181818;stroke-width:0.5;stroke-dasharray:5,5;" x1="23" x2="23" y1="118.5938" y2="546.4531"/></g><g><title>Dashboard</title><rect fill="#000000" fill-opacity="0.00000" height="427.8594" width="8" x="163.9829" y="118.5938"/><line style="stroke:#181818;stroke-width:0.5;stroke-dasharray:5,5;" x1="167.8828" x2="167.8828" y1="118.5938" y2="546.4531"/></g><g><title>.LoanController</title><rect fill="#000000" fill-opacity="0.00000" height="427.8594" width="8" x="343.5303" y="118.5938"/><line style="stroke:#181818;stroke-width:0.5;stroke-dasharray:5,5;" x1="346.6768" x2="346.6768" y1="118.5938" y2="546.4531"/></g><g><title>.LoanDB</title><rect fill="#000000" fill-opacity="0.00000" height="427.8594" width="8" x="516.2349" y="118.5938"/><line style="stroke:#181818;stroke-width:0.5;stroke-dasharray:5,5;" x1="519.7754" x2="519.7754" y1="118.5938" y2="546.4531"/></g><g><title>.BookDB</title><rect fill="#000000" fill-opacity="0.00000" height="427.8594" width="8" x="591.6665" y="118.5938"/><line style="stroke:#181818;stroke-width:0.5;stroke-dasharray:5,5;" x1="594.6943" x2="594.6943" y1="118.5938" y2="546.4531"/></g><g class="participant participant-head" data-participant="User"><text fill="#000000" font-family="sans-serif" font-size="14" lengthAdjust="spacing" textLength="31.9102" x="5" y="115.292">User</text><ellipse cx="23.9551" cy="50.7969" fill="#E2E2F0" rx="8" ry="8" style="stroke:#181818;stroke-width:0.5;"/><path d="M23.9551,58.7969 L23.9551,85.7969 M10.9551,66.7969 L36.9551,66.7969 M23.9551,85.7969 L10.9551,100.7969 M23.9551,85.7969 L36.9551,100.7969" fill="none" style="stroke:#181818;stroke-width:0.5;"/></g><g class="participant participant-tail" data-participant="User"><text fill="#000000" font-family="sans-serif" font-size="14" lengthAdjust="spacing" textLength="31.9102" x="5" y="558.4482">User</text><ellipse cx="23.9551" cy="570.25" fill="#E2E2F0" rx="8" ry="8" style="stroke:#181818;stroke-width:0.5;"/><path d="M23.9551,578.25 L23.9551,605.25 M10.9551,586.25 L36.9551,586.25 M23.9551,605.25 L10.9551,620.25 M23.9551,605.25 L36.9551,620.25" fill="none" style="stroke:#181818;stroke-width:0.5;"/></g><g class="participant participant-head" data-participant="D"><rect fill="#E2E2F0" height="30.2969" rx="2.5" ry="2.5" style="stroke:#181818;stroke-width:0.5;" width="90.2002" x="122.8828" y="87.2969"/><text fill="#000000" font-family="sans-serif" font-size="14" lengthAdjust="spacing" textLength="76.2002" x="129.8828" y="107.292">Dashboard</text></g><g class="participant participant-tail" data-participant="D"><rect fill="#E2E2F0" height="30.2969" rx="2.5" ry="2.5" style="stroke:#181818;stroke-width:0.5;" width="90.2002" x="122.8828" y="545.4531"/><text fill="#000000" font-family="sans-serif" font-size="14" lengthAdjust="spacing" textLength="76.2002" x="129.8828" y="565.4482">Dashboard</text></g><g class="participant participant-head" data-participant="LC"><rect fill="#E2E2F0" height="30.2969" rx="2.5" ry="2.5" style="stroke:#181818;stroke-width:0.5;" width="121.707" x="286.6768" y="87.2969"/><text fill="#000000" font-family="sans-serif" font-size="14" lengthAdjust="spacing" textLength="107.707" x="293.6768" y="107.292">:LoanController</text></g><g class="participant participant-tail" data-participant="LC"><rect fill="#E2E2F0" height="30.2969" rx="2.5" ry="2.5" style="stroke:#181818;stroke-width:0.5;" width="121.707" x="286.6768" y="545.4531"/><text fill="#000000" font-family="sans-serif" font-size="14" lengthAdjust="spacing" textLength="107.707" x="293.6768" y="565.4482">:LoanController</text></g><g class="participant participant-head" data-participant="LDB"><text fill="#000000" font-family="sans-serif" font-size="14" lengthAdjust="spacing" textLength="58.9189" x="487.7754" y="115.292">:LoanDB</text><path d="M502.2349,66.2969 C502.2349,56.2969 520.2349,56.2969 520.2349,56.2969 C520.2349,56.2969 538.2349,56.2969 538.2349,66.2969 L538.2349,92.2969 C538.2349,102.2969 520.2349,102.2969 520.2349,102.2969 C520.2349,102.2969 502.2349,102.2969 502.2349,92.2969 L502.2349,66.2969" fill="#E2E2F0" style="stroke:#181818;stroke-width:0.5;"/><path d="M502.2349,66.2969 C502.2349,76.2969 520.2349,76.2969 520.2349,76.2969 C520.2349,76.2969 538.2349,76.2969 538.2349,66.2969" fill="none" style="stroke:#181818;stroke-width:0.5;"/></g><g class="participant participant-tail" data-participant="LDB"><text fill="#000000" font-family="sans-serif" font-size="14" lengthAdjust="spacing" textLength="58.9189" x="487.7754" y="558.4482">:LoanDB</text><path d="M502.2349,571.75 C502.2349,561.75 520.2349,561.75 520.2349,561.75 C520.2349,561.75 538.2349,561.75 538.2349,571.75 L538.2349,597.75 C538.2349,607.75 520.2349,607.75 520.2349,607.75 C520.2349,607.75 502.2349,607.75 502.2349,597.75 L502.2349,571.75" fill="#E2E2F0" style="stroke:#181818;stroke-width:0.5;"/><path d="M502.2349,571.75 C502.2349,581.75 520.2349,581.75 520.2349,581.75 C520.2349,581.75 538.2349,581.75 538.2349,571.75" fill="none" style="stroke:#181818;stroke-width:0.5;"/></g><g class="participant participant-head" data-participant="BDB"><text fill="#000000" font-family="sans-serif" font-size="14" lengthAdjust="spacing" textLength="59.9443" x="562.6943" y="115.292">:BookDB</text><path d="M577.6665,66.2969 C577.6665,56.2969 595.6665,56.2969 595.6665,56.2969 C595.6665,56.2969 613.6665,56.2969 613.6665,66.2969 L613.6665,92.2969 C613.6665,102.2969 595.6665,102.2969 595.6665,102.2969 C595.6665,102.2969 577.6665,102.2969 577.6665,92.2969 L577.6665,66.2969" fill="#E2E2F0" style="stroke:#181818;stroke-width:0.5;"/><path d="M577.6665,66.2969 C577.6665,76.2969 595.6665,76.2969 595.6665,76.2969 C595.6665,76.2969 613.6665,76.2969 613.6665,66.2969" fill="none" style="stroke:#181818;stroke-width:0.5;"/></g><g class="participant participant-tail" data-participant="BDB"><text fill="#000000" font-family="sans-serif" font-size="14" lengthAdjust="spacing" textLength="59.9443" x="562.6943" y="558.4482">:BookDB</text><path d="M577.6665,571.75 C577.6665,561.75 595.6665,561.75 595.6665,561.75 C595.6665,561.75 613.6665,561.75 613.6665,571.75 L613.6665,597.75 C613.6665,607.75 595.6665,607.75 595.6665,607.75 C595.6665,607.75 577.6665,607.75 577.6665,597.75 L577.6665,571.75" fill="#E2E2F0" style="stroke:#181818;stroke-width:0.5;"/><path d="M577.6665,571.75 C577.6665,581.75 595.6665,581.75 595.6665,581.75 C595.6665,581.75 613.6665,581.75 613.6665,571.75" fill="none" style="stroke:#181818;stroke-width:0.5;"/></g><g><title>Dashboard</title><rect fill="#FFFFFF" height="145.6641" style="stroke:#181818;stroke-width:1;" width="10" x="162.9829" y="149.7266"/></g><g><title>Dashboard</title><rect fill="#FFFFFF" height="203.9297" style="stroke:#181818;stroke-width:1;" width="10" x="162.9829" y="324.5234"/></g><g><title>.LoanController</title><rect fill="#FFFFFF" height="87.3984" style="stroke:#181818;stroke-width:1;" width="10" x="342.5303" y="178.8594"/></g><g><title>.LoanController</title><rect fill="#FFFFFF" height="145.6641" style="stroke:#181818;stroke-width:1;" width="10" x="342.5303" y="353.6563"/></g><g><title>.LoanDB</title><rect fill="#FFFFFF" height="29.1328" style="stroke:#181818;stroke-width:1;" width="10" x="515.2349" y="207.9922"/></g><g><title>.LoanDB</title><rect fill="#FFFFFF" height="29.1328" style="stroke:#181818;stroke-width:1;" width="10" x="515.2349" y="382.7891"/></g><g><title>.BookDB</title><rect fill="#FFFFFF" height="29.1328" style="stroke:#181818;stroke-width:1;" width="10" x="590.6665" y="441.0547"/></g><g class="message" data-participant-1="User" data-participant-2="D"><polygon fill="#181818" points="150.9829,145.7266,160.9829,149.7266,150.9829,153.7266,154.9829,149.7266" style="stroke:#181818;stroke-width:1;"/><line style="stroke:#181818;stroke-width:1;" x1="23.9551" x2="156.9829" y1="149.7266" y2="149.7266"/><text fill="#000000" font-family="sans-serif" font-size="13" lengthAdjust="spacing" textLength="113.3438" x="30.9551" y="144.6606">openDashboard()</text></g><g class="message" data-participant-1="D" data-participant-2="LC"><polygon fill="#181818" points="330.5303,174.8594,340.5303,178.8594,330.5303,182.8594,334.5303,178.8594" style="stroke:#181818;stroke-width:1;"/><line style="stroke:#181818;stroke-width:1;" x1="172.9829" x2="336.5303" y1="178.8594" y2="178.8594"/><text fill="#000000" font-family="sans-serif" font-size="13" lengthAdjust="spacing" textLength="150.5474" x="179.9829" y="173.7935">getActiveLoans(userId)</text></g><g class="message" data-participant-1="LC" data-participant-2="LDB"><polygon fill="#181818" points="503.2349,203.9922,513.2349,207.9922,503.2349,211.9922,507.2349,207.9922" style="stroke:#181818;stroke-width:1;"/><line style="stroke:#181818;stroke-width:1;" x1="352.5303" x2="509.2349" y1="207.9922" y2="207.9922"/><text fill="#000000" font-family="sans-serif" font-size="13" lengthAdjust="spacing" textLength="126.2866" x="359.5303" y="202.9263">queryLoans(userId)</text></g><g class="message" data-participant-1="LDB" data-participant-2="LC"><polygon fill="#181818" points="363.5303,233.125,353.5303,237.125,363.5303,241.125,359.5303,237.125" style="stroke:#181818;stroke-width:1;"/><line style="stroke:#181818;stroke-width:1;stroke-dasharray:2,2;" x1="357.5303" x2="519.2349" y1="237.125" y2="237.125"/><text fill="#000000" font-family="sans-serif" font-size="13" lengthAdjust="spacing" textLength="80.2725" x="369.5303" y="232.0591">loanRecords</text></g><g class="message" data-participant-1="LC" data-participant-2="D"><polygon fill="#181818" points="183.9829,262.2578,173.9829,266.2578,183.9829,270.2578,179.9829,266.2578" style="stroke:#181818;stroke-width:1;"/><line style="stroke:#181818;stroke-width:1;stroke-dasharray:2,2;" x1="177.9829" x2="346.5303" y1="266.2578" y2="266.2578"/><text fill="#000000" font-family="sans-serif" font-size="13" lengthAdjust="spacing" textLength="88.5815" x="189.9829" y="261.1919">returnLoans()</text></g><g class="message" data-participant-1="D" data-participant-2="User"><polygon fill="#181818" points="34.9551,291.3906,24.9551,295.3906,34.9551,299.3906,30.9551,295.3906" style="stroke:#181818;stroke-width:1;"/><line style="stroke:#181818;stroke-width:1;stroke-dasharray:2,2;" x1="28.9551" x2="166.9829" y1="295.3906" y2="295.3906"/><text fill="#000000" font-family="sans-serif" font-size="13" lengthAdjust="spacing" textLength="94.4785" x="40.9551" y="290.3247">displayLoans()</text></g><g class="message" data-participant-1="User" data-participant-2="D"><polygon fill="#181818" points="150.9829,320.5234,160.9829,324.5234,150.9829,328.5234,154.9829,324.5234" style="stroke:#181818;stroke-width:1;"/><line style="stroke:#181818;stroke-width:1;" x1="23.9551" x2="156.9829" y1="324.5234" y2="324.5234"/><text fill="#000000" font-family="sans-serif" font-size="13" lengthAdjust="spacing" textLength="120.0278" x="30.9551" y="319.4575">selectLoan(loanId)</text></g><g class="message" data-participant-1="D" data-participant-2="LC"><polygon fill="#181818" points="330.5303,349.6563,340.5303,353.6563,330.5303,357.6563,334.5303,353.6563" style="stroke:#181818;stroke-width:1;"/><line style="stroke:#181818;stroke-width:1;" x1="172.9829" x2="336.5303" y1="353.6563" y2="353.6563"/><text fill="#000000" font-family="sans-serif" font-size="13" lengthAdjust="spacing" textLength="122.6177" x="179.9829" y="348.5903">returnBook(loanId)</text></g><g class="message" data-participant-1="LC" data-participant-2="LDB"><polygon fill="#181818" points="503.2349,378.7891,513.2349,382.7891,503.2349,386.7891,507.2349,382.7891" style="stroke:#181818;stroke-width:1;"/><line style="stroke:#181818;stroke-width:1;" x1="352.5303" x2="509.2349" y1="382.7891" y2="382.7891"/><text fill="#000000" font-family="sans-serif" font-size="13" lengthAdjust="spacing" textLength="143.7046" x="359.5303" y="377.7231">markReturned(loanId)</text></g><g class="message" data-participant-1="LDB" data-participant-2="LC"><polygon fill="#181818" points="363.5303,407.9219,353.5303,411.9219,363.5303,415.9219,359.5303,411.9219" style="stroke:#181818;stroke-width:1;"/><line style="stroke:#181818;stroke-width:1;stroke-dasharray:2,2;" x1="357.5303" x2="519.2349" y1="411.9219" y2="411.9219"/><text fill="#000000" font-family="sans-serif" font-size="13" lengthAdjust="spacing" textLength="56.5132" x="369.5303" y="406.856">returned</text></g><g class="message" data-participant-1="LC" data-participant-2="BDB"><polygon fill="#181818" points="578.6665,437.0547,588.6665,441.0547,578.6665,445.0547,582.6665,441.0547" style="stroke:#181818;stroke-width:1;"/><line style="stroke:#181818;stroke-width:1;" x1="352.5303" x2="584.6665" y1="441.0547" y2="441.0547"/><text fill="#000000" font-family="sans-serif" font-size="13" lengthAdjust="spacing" textLength="141.1465" x="359.5303" y="435.9888">updateStatus(bookId)</text></g><g class="message" data-participant-1="BDB" data-participant-2="LC"><polygon fill="#181818" points="363.5303,466.1875,353.5303,470.1875,363.5303,474.1875,359.5303,470.1875" style="stroke:#181818;stroke-width:1;"/><line style="stroke:#181818;stroke-width:1;stroke-dasharray:2,2;" x1="357.5303" x2="594.6665" y1="470.1875" y2="470.1875"/><text fill="#000000" font-family="sans-serif" font-size="13" lengthAdjust="spacing" textLength="54.0566" x="369.5303" y="465.1216">updated</text></g><g class="message" data-participant-1="LC" data-participant-2="D"><polygon fill="#181818" points="183.9829,495.3203,173.9829,499.3203,183.9829,503.3203,179.9829,499.3203" style="stroke:#181818;stroke-width:1;"/><line style="stroke:#181818;stroke-width:1;stroke-dasharray:2,2;" x1="177.9829" x2="346.5303" y1="499.3203" y2="499.3203"/><text fill="#000000" font-family="sans-serif" font-size="13" lengthAdjust="spacing" textLength="102.7368" x="189.9829" y="494.2544">returnSuccess()</text></g><g class="message" data-participant-1="D" data-participant-2="User"><polygon fill="#181818" points="34.9551,524.4531,24.9551,528.4531,34.9551,532.4531,30.9551,528.4531" style="stroke:#181818;stroke-width:1;"/><line style="stroke:#181818;stroke-width:1;stroke-dasharray:2,2;" x1="28.9551" x2="166.9829" y1="528.4531" y2="528.4531"/><text fill="#000000" font-family="sans-serif" font-size="13" lengthAdjust="spacing" textLength="96.0718" x="40.9551" y="523.3872">showSuccess()</text></g><!--SRC=[TP71Ri8m44Jl_eeLft3W1pWWrV6b4YTGFs2nLn0HujJUjEBlkvka5ORqF4-pCxFSS4jm81vI1pR6AnpfSw3E4xW6pmblng3dcE0ZKp8z9cvyqsF7i7AOBwU8AQm0CxXItEuZTdNiECMsfJGY-ze4P3nXfXbmTXASVLGqnwnOKOoUXiqE76mXzjJz7QxM6gxvGfQunZY5zhLGP-8t5KYFv6eGW_Vm04iI8w3YpWelbTFzFrOYABNvDM-5Ev2FAMGJgE16qpbf6aUTJDS5M6jIeSPUMmXDxbkyBv2kx9wf9S_ALPgXI5dKdqxhZA_WS_KRfklqVmeBz7FvDAEBpNVwBu66Nhv9HqOUSdMI68Md_jG-UavuOMaNnpmEtbD-dRFSCr_YzoBfVW00]--></g></svg>